HIERARCHY
ROOT newVegas:Hips
{
	OFFSET 0.000000 96.479958 0.000000
	CHANNELS 6 Xposition Yposition Zposition Xrotation Yrotation Zrotation
	JOINT newVegas:Pelvis
	{
		OFFSET 0.000000 0.000000 0.000000
		CHANNELS 3 Xrotation Yrotation Zrotation
		JOINT newVegas:LeftUpLeg
		{
			OFFSET 18.735201 -5.666702 -4.541200
			CHANNELS 3 Xrotation Yrotation Zrotation
			JOINT newVegas:LeftLeg
			{
				OFFSET -0.021200 -31.938179 0.493100
				CHANNELS 3 Xrotation Yrotation Zrotation
				JOINT newVegas:LeftFoot
				{
					OFFSET 0.021200 -31.938179 -4.336299
					CHANNELS 3 Xrotation Yrotation Zrotation
					JOINT newVegas:LeftToeBase
					{
						OFFSET 0.943001 -26.722000 15.023500
						CHANNELS 3 Xrotation Yrotation Zrotation
						End Site
						{
							OFFSET 0.000000 30.670183 0.000000
						}
					}
				}
				JOINT newVegas:Left_PantLeg
				{
					OFFSET 0.663870 -9.044666 -1.108900
					CHANNELS 3 Xrotation Yrotation Zrotation
					End Site
					{
						OFFSET 1.415995 20.635357 0.000000
					}
				}
			}
		}
		JOINT newVegas:RightUpLeg
		{
			OFFSET -18.735201 -5.666702 -4.541200
			CHANNELS 3 Xrotation Yrotation Zrotation
			JOINT newVegas:RightLeg
			{
				OFFSET 0.018946 -31.938133 0.493100
				CHANNELS 3 Xrotation Yrotation Zrotation
				JOINT newVegas:RightFoot
				{
					OFFSET -0.018946 -31.938126 -4.336299
					CHANNELS 3 Xrotation Yrotation Zrotation
					JOINT newVegas:RightToeBase
					{
						OFFSET -0.943001 -26.722004 15.023500
						CHANNELS 3 Xrotation Yrotation Zrotation
						End Site
						{
							OFFSET 0.000000 30.670187 0.000000
						}
					}
				}
				JOINT newVegas:Right_PantLeg
				{
					OFFSET -0.661674 -9.044716 -1.108900
					CHANNELS 3 Xrotation Yrotation Zrotation
					End Site
					{
						OFFSET -1.415958 20.635269 0.000000
					}
				}
			}
		}
	}
	JOINT newVegas:Spine
	{
		OFFSET 0.000000 10.199997 -0.299500
		CHANNELS 3 Xrotation Yrotation Zrotation
		JOINT newVegas:Spine1
		{
			OFFSET 0.000000 11.900002 -1.516600
			CHANNELS 3 Xrotation Yrotation Zrotation
			JOINT newVegas:Spine2
			{
				OFFSET 0.000000 13.600006 -2.842500
				CHANNELS 3 Xrotation Yrotation Zrotation
				JOINT newVegas:Neck
				{
					OFFSET 0.000000 9.624100 -2.890100
					CHANNELS 3 Xrotation Yrotation Zrotation
					JOINT newVegas:Head
					{
						OFFSET 0.000000 14.068802 -1.351900
						CHANNELS 3 Xrotation Yrotation Zrotation
						JOINT newVegas:Hair_Back
						{
							OFFSET 0.000000 3.231903 -17.524799
							CHANNELS 3 Xrotation Yrotation Zrotation
							End Site
							{
								OFFSET 0.000000 19.849884 0.000000
							}
						}
						JOINT newVegas:Hair_Front
						{
							OFFSET 0.000000 31.260406 4.573800
							CHANNELS 3 Xrotation Yrotation Zrotation
							JOINT newVegas:Hair_Front1
							{
								OFFSET 0.000000 2.284103 11.993300
								CHANNELS 3 Xrotation Yrotation Zrotation
								JOINT newVegas:Hair_Front2
								{
									OFFSET 0.000000 2.284103 11.993300
									CHANNELS 3 Xrotation Yrotation Zrotation
									End Site
									{
										OFFSET 0.000000 12.208862 0.000000
									}
								}
							}
						}
						JOINT newVegas:Jowel
						{
							OFFSET 0.000000 -7.458206 6.864100
							CHANNELS 3 Xrotation Yrotation Zrotation
							End Site
							{
								OFFSET 0.000000 19.849884 0.000000
							}
						}
					}
				}
				JOINT newVegas:LeftShoulder
				{
					OFFSET 15.263000 10.923401 -0.547700
					CHANNELS 3 Xrotation Yrotation Zrotation
					JOINT newVegas:LeftArm
					{
						OFFSET 25.438599 -2.830597 -13.032500
						CHANNELS 3 Xrotation Yrotation Zrotation
						JOINT newVegas:LeftForeArm
						{
							OFFSET 29.960503 0.000000 0.000000
							CHANNELS 3 Xrotation Yrotation Zrotation
							JOINT newVegas:LeftHand
							{
								OFFSET 27.849251 0.000000 0.000000
								CHANNELS 3 Xrotation Yrotation Zrotation
								JOINT newVegas:LeftHandThumb1
								{
									OFFSET 4.487587 -3.305161 6.305391
									CHANNELS 3 Xrotation Yrotation Zrotation
									JOINT newVegas:LeftHandThumb2
									{
										OFFSET 5.480453 -3.164139 3.164143
										CHANNELS 3 Xrotation Yrotation Zrotation
										JOINT newVegas:LeftHandThumb3
										{
											OFFSET 5.159721 -2.978973 2.978967
											CHANNELS 3 Xrotation Yrotation Zrotation
											End Site
											{
												OFFSET 2.494507 5.926697 1.738678
											}
										}
									}
								}
								JOINT newVegas:LeftHandIndex1
								{
									OFFSET 18.578728 -0.527832 5.208049
									CHANNELS 3 Xrotation Yrotation Zrotation
									JOINT newVegas:LeftHandIndex2
									{
										OFFSET 3.192009 0.000000 0.000000
										CHANNELS 3 Xrotation Yrotation Zrotation
										JOINT newVegas:LeftHandIndex3
										{
											OFFSET 3.835129 0.000000 0.000000
											CHANNELS 3 Xrotation Yrotation Zrotation
											End Site
											{
												OFFSET -0.034599 3.816971 0.371180
											}
										}
									}
								}
								JOINT newVegas:LeftHandMiddle1
								{
									OFFSET 18.476105 0.000000 0.000000
									CHANNELS 3 Xrotation Yrotation Zrotation
									JOINT newVegas:LeftHandMiddle2
									{
										OFFSET 3.324875 0.000000 0.000000
										CHANNELS 3 Xrotation Yrotation Zrotation
										JOINT newVegas:LeftHandMiddle3
										{
											OFFSET 4.596550 0.000000 0.000000
											CHANNELS 3 Xrotation Yrotation Zrotation
											End Site
											{
												OFFSET 0.057701 4.578827 0.399218
											}
										}
									}
								}
								JOINT newVegas:LeftHandRing1
								{
									OFFSET 17.732719 0.121887 -4.201567
									CHANNELS 3 Xrotation Yrotation Zrotation
									JOINT newVegas:LeftHandRing2
									{
										OFFSET 2.733170 0.000000 0.000000
										CHANNELS 3 Xrotation Yrotation Zrotation
										JOINT newVegas:LeftHandRing3
										{
											OFFSET 3.178268 0.000000 0.000000
											CHANNELS 3 Xrotation Yrotation Zrotation
											End Site
											{
												OFFSET 0.119102 3.170624 0.185394
											}
										}
									}
								}
								JOINT newVegas:LeftHandPinky1
								{
									OFFSET 15.989624 -0.606689 -7.535461
									CHANNELS 3 Xrotation Yrotation Zrotation
									JOINT newVegas:LeftHandPinky2
									{
										OFFSET 2.538986 0.000000 0.000000
										CHANNELS 3 Xrotation Yrotation Zrotation
										JOINT newVegas:LeftHandPinky3
										{
											OFFSET 2.593102 0.000000 0.000000
											CHANNELS 3 Xrotation Yrotation Zrotation
											End Site
											{
												OFFSET -0.150902 2.584198 0.152708
											}
										}
									}
								}
							}
							JOINT newVegas:Left_Sleeve
							{
								OFFSET 0.267448 -0.649796 0.577675
								CHANNELS 3 Xrotation Yrotation Zrotation
								End Site
								{
									OFFSET 0.000000 15.991241 0.000000
								}
							}
							JOINT newVegas:Left_CapeC
							{
								OFFSET 15.715958 -8.608795 -6.935905
								CHANNELS 3 Xrotation Yrotation Zrotation
								JOINT newVegas:Left_CapeC1
								{
									OFFSET 0.000000 -8.688499 0.000000
									CHANNELS 3 Xrotation Yrotation Zrotation
									End Site
									{
										OFFSET 0.000000 8.688499 0.000000
									}
								}
							}
						}
						JOINT newVegas:Left_CapeB
						{
							OFFSET 26.118385 -8.608795 -7.079235
							CHANNELS 3 Xrotation Yrotation Zrotation
							JOINT newVegas:Left_CapeB1
							{
								OFFSET 0.000000 -8.688499 0.000000
								CHANNELS 3 Xrotation Yrotation Zrotation
								End Site
								{
									OFFSET 0.000000 8.688499 0.000000
								}
							}
						}
						JOINT newVegas:Left_CapeA
						{
							OFFSET 5.115639 -8.608795 -10.395809
							CHANNELS 3 Xrotation Yrotation Zrotation
							JOINT newVegas:Left_CapeA1
							{
								OFFSET 0.000000 -8.688499 0.000000
								CHANNELS 3 Xrotation Yrotation Zrotation
								End Site
								{
									OFFSET 0.000000 8.688499 0.000000
								}
							}
						}
					}
				}
				JOINT newVegas:RightShoulder
				{
					OFFSET -15.263000 10.923401 -0.547700
					CHANNELS 3 Xrotation Yrotation Zrotation
					JOINT newVegas:RightArm
					{
						OFFSET -25.438599 -2.830597 -13.032500
						CHANNELS 3 Xrotation Yrotation Zrotation
						JOINT newVegas:RightForeArm
						{
							OFFSET -29.960503 0.000000 0.000000
							CHANNELS 3 Xrotation Yrotation Zrotation
							JOINT newVegas:RightHand
							{
								OFFSET -27.849251 0.000000 0.000000
								CHANNELS 3 Xrotation Yrotation Zrotation
								JOINT newVegas:RightHandThumb1
								{
									OFFSET -4.487587 -3.305161 6.305391
									CHANNELS 3 Xrotation Yrotation Zrotation
									JOINT newVegas:RightHandThumb2
									{
										OFFSET -5.480453 -3.164139 3.164143
										CHANNELS 3 Xrotation Yrotation Zrotation
										JOINT newVegas:RightHandThumb3
										{
											OFFSET -5.159721 -2.978973 2.978967
											CHANNELS 3 Xrotation Yrotation Zrotation
											End Site
											{
												OFFSET -2.494507 5.926697 1.738678
											}
										}
									}
								}
								JOINT newVegas:RightHandIndex1
								{
									OFFSET -18.578728 -0.527832 5.208049
									CHANNELS 3 Xrotation Yrotation Zrotation
									JOINT newVegas:RightHandIndex2
									{
										OFFSET -3.192009 0.000000 0.000000
										CHANNELS 3 Xrotation Yrotation Zrotation
										JOINT newVegas:RightHandIndex3
										{
											OFFSET -3.835129 0.000000 0.000000
											CHANNELS 3 Xrotation Yrotation Zrotation
											End Site
											{
												OFFSET 0.034599 3.816971 0.371180
											}
										}
									}
								}
								JOINT newVegas:RightHandMiddle1
								{
									OFFSET -18.476105 0.000000 0.000000
									CHANNELS 3 Xrotation Yrotation Zrotation
									JOINT newVegas:RightHandMiddle2
									{
										OFFSET -3.324875 0.000000 0.000000
										CHANNELS 3 Xrotation Yrotation Zrotation
										JOINT newVegas:RightHandMiddle3
										{
											OFFSET -4.596550 0.000000 0.000000
											CHANNELS 3 Xrotation Yrotation Zrotation
											End Site
											{
												OFFSET -0.057701 4.578827 0.399218
											}
										}
									}
								}
								JOINT newVegas:RightHandRing1
								{
									OFFSET -17.732719 0.121887 -4.201567
									CHANNELS 3 Xrotation Yrotation Zrotation
									JOINT newVegas:RightHandRing2
									{
										OFFSET -2.733170 0.000000 0.000000
										CHANNELS 3 Xrotation Yrotation Zrotation
										JOINT newVegas:RightHandRing3
										{
											OFFSET -3.178268 0.000000 0.000000
											CHANNELS 3 Xrotation Yrotation Zrotation
											End Site
											{
												OFFSET -0.119102 3.170624 0.185394
											}
										}
									}
								}
								JOINT newVegas:RightHandPinky1
								{
									OFFSET -15.989624 -0.606689 -7.535461
									CHANNELS 3 Xrotation Yrotation Zrotation
									JOINT newVegas:RightHandPinky2
									{
										OFFSET -2.538986 0.000000 0.000000
										CHANNELS 3 Xrotation Yrotation Zrotation
										JOINT newVegas:RightHandPinky3
										{
											OFFSET -2.593102 0.000000 0.000000
											CHANNELS 3 Xrotation Yrotation Zrotation
											End Site
											{
												OFFSET 0.150902 2.584198 0.152708
											}
										}
									}
								}
							}
							JOINT newVegas:Right_CapeC
							{
								OFFSET -15.715958 -8.608795 -6.935905
								CHANNELS 3 Xrotation Yrotation Zrotation
								JOINT newVegas:Right_CapeC1
								{
									OFFSET 0.000000 -8.688499 0.000000
									CHANNELS 3 Xrotation Yrotation Zrotation
									End Site
									{
										OFFSET 0.000000 8.688499 0.000000
									}
								}
							}
							JOINT newVegas:Right_Sleeve
							{
								OFFSET -0.267448 -0.649994 0.577675
								CHANNELS 3 Xrotation Yrotation Zrotation
								End Site
								{
									OFFSET 0.000000 15.991302 0.000000
								}
							}
						}
						JOINT newVegas:Right_CapeA
						{
							OFFSET -5.115540 -8.608795 -10.395824
							CHANNELS 3 Xrotation Yrotation Zrotation
							JOINT newVegas:Right_CapeA1
							{
								OFFSET 0.000000 -8.688499 0.000000
								CHANNELS 3 Xrotation Yrotation Zrotation
								End Site
								{
									OFFSET 0.000000 8.688499 0.000000
								}
							}
						}
						JOINT newVegas:Right_CapeB
						{
							OFFSET -26.118187 -8.608795 -7.079266
							CHANNELS 3 Xrotation Yrotation Zrotation
							JOINT newVegas:Right_CapeB1
							{
								OFFSET 0.000000 -8.688499 0.000000
								CHANNELS 3 Xrotation Yrotation Zrotation
								End Site
								{
									OFFSET 0.000000 8.688499 0.000000
								}
							}
						}
					}
				}
				JOINT newVegas:Left_Collar
				{
					OFFSET 18.625099 8.655502 8.828100
					CHANNELS 3 Xrotation Yrotation Zrotation
					JOINT newVegas:Left_Collar1
					{
						OFFSET 14.783401 10.540405 -1.259500
						CHANNELS 3 Xrotation Yrotation Zrotation
						End Site
						{
							OFFSET 0.000000 18.199875 0.000000
						}
					}
				}
				JOINT newVegas:Collar_Back
				{
					OFFSET 0.000000 15.630707 -20.132601
					CHANNELS 3 Xrotation Yrotation Zrotation
					End Site
					{
						OFFSET 0.000000 22.523010 0.000000
					}
				}
				JOINT newVegas:Left_Peck
				{
					OFFSET 17.239599 -5.132599 25.482599
					CHANNELS 3 Xrotation Yrotation Zrotation
					End Site
					{
						OFFSET 0.000000 22.523010 0.000000
					}
				}
				JOINT newVegas:Right_Peck
				{
					OFFSET -17.239599 -5.132202 25.482599
					CHANNELS 3 Xrotation Yrotation Zrotation
					End Site
					{
						OFFSET 0.000000 22.523010 0.000000
					}
				}
				JOINT newVegas:Right_Collar
				{
					OFFSET -18.625099 8.655792 8.828100
					CHANNELS 3 Xrotation Yrotation Zrotation
					JOINT newVegas:Right_Collar1
					{
						OFFSET -14.783401 10.539993 -1.259500
						CHANNELS 3 Xrotation Yrotation Zrotation
						End Site
						{
							OFFSET 0.000000 18.199631 0.000000
						}
					}
				}
			}
		}
		JOINT newVegas:Belly
		{
			OFFSET 0.000000 -6.540398 9.014299
			CHANNELS 3 Xrotation Yrotation Zrotation
			End Site
			{
				OFFSET 0.000000 11.566666 0.000000
			}
		}
	}
	JOINT newVegas:ElvisFacialAnim_Joint
	{
		OFFSET 1.000000 -95.330101 -8.825800
		CHANNELS 3 Xrotation Yrotation Zrotation
		End Site
		{
			OFFSET 0.000000 35.315800 0.000000
		}
	}
}
MOTION
Frames: 4
Frame Time: 0.033333
-1.623990 9.569778 -0.811150 82.071034 -4.177584 -2.183158 0.000000 0.000000 0.000000 -18.291569 33.029746 20.922606 33.613099 -8.673958 -12.227952 -17.393669 11.741201 29.699455 -0.000001 -0.000001 -0.000000 -0.000001 -0.000000 0.000001 -42.398454 -38.072998 -51.334141 33.194613 -6.942326 -1.782220 -8.166450 6.638899 17.940445 -0.000000 -0.000001 -0.000001 -0.000000 -0.000001 -0.000001 5.830627 -1.462401 -0.524085 -4.505692 -5.981539 1.125159 -3.978340 -6.220833 0.289843 -12.194632 0.310539 5.804294 -12.194643 0.310532 5.804297 -0.000003 0.000000 -0.000000 -12.194543 0.310549 5.804290 -12.194639 0.310510 5.804301 0.000001 0.000000 -0.000000 -0.000003 0.000000 0.000000 -32.464156 -38.489448 29.683657 -79.250808 -12.366252 -42.888691 0.000039 -47.566762 0.000035 -117.692929 16.518140 25.032379 1.567996 0.456390 2.719342 19.471730 -1.478275 7.637086 -0.000002 -0.000001 0.000001 -1.882820 2.129414 -39.817025 2.947098 5.081733 -60.200516 -0.000002 -0.000001 0.000000 0.405922 5.507040 -52.453158 3.387134 5.308609 -65.057477 -0.000001 0.000000 -0.000001 -0.074384 5.736760 -61.061427 4.422085 5.674465 -75.840412 0.000005 -0.000001 0.000001 2.216829 7.072494 -64.435417 4.422612 5.674586 -75.845781 -0.000000 0.000000 -0.000002 0.000002 -0.000001 -0.000000 0.000002 -0.000001 -0.000000 0.000001 -0.000000 -0.000000 -0.000001 0.000000 -0.000000 -0.000001 0.000001 -0.000000 -0.000001 0.000000 -0.000000 -0.000001 -0.000000 0.000001 -20.876765 19.499220 15.427027 -54.224663 48.923894 38.187748 -0.000049 110.391204 0.000042 -42.846258 -8.113270 -56.436986 8.377140 -4.904143 11.021994 21.620207 -18.183895 -18.379202 0.000002 0.000001 0.000001 -1.101403 1.407127 15.159513 1.422373 -3.352165 45.974092 0.000000 -0.000001 -0.000001 3.413069 -7.186230 51.650242 6.296786 -4.359580 110.634687 0.000001 0.000000 0.000000 -3.349050 -2.600420 57.010561 5.440890 -4.590880 99.698161 0.000001 -0.000001 -0.000001 -3.996427 -3.303954 64.593857 4.058831 -4.618638 82.610523 -0.000001 -0.000000 0.000000 -0.000001 0.000001 0.000001 -0.000001 0.000001 0.000005 -0.000001 0.000001 0.000002 0.000000 0.000000 0.000001 0.000001 0.000000 -0.000001 0.000000 0.000000 0.000001 0.000001 -0.000001 0.000001 -0.000001 -0.000000 -0.000000 -0.000001 -0.000000 -0.000000 -0.000001 -0.000000 -0.000000 -0.000001 -0.000000 -0.000000 -0.000001 -0.000000 -0.000000 -0.000001 -0.000000 -0.000000 -0.000001 -0.000000 -0.000000 -0.000000 -0.000000 -0.000000 0.000000 0.000000 0.000000 
-1.624973 9.748161 -0.652267 82.077311 -4.250618 -1.471018 -0.000001 -0.000000 -0.000000 -20.428642 32.636194 22.198588 36.464003 -7.996276 -11.351094 -18.173067 10.219554 30.894821 -0.000001 0.000000 -0.000004 -0.000000 0.000001 0.000000 -43.950997 -37.399551 -51.763985 33.757527 -6.464520 -2.442825 -7.549207 6.940669 15.884397 -0.000001 -0.000000 0.000000 0.000000 -0.000002 -0.000000 5.896981 -1.452362 -0.543272 -4.556594 -5.949899 1.189284 -4.029999 -6.188364 0.358838 -12.201683 0.324148 5.713252 -12.201706 0.324144 5.713250 -0.000000 0.000000 0.000000 -12.201657 0.324150 5.713253 -12.201750 0.324139 5.713253 0.000003 -0.000001 -0.000001 -0.000000 0.000000 0.000001 -32.636515 -38.109689 28.540979 -77.637367 -13.010096 -41.066751 0.000009 -49.809339 0.000009 -119.783227 14.199362 24.647974 1.381425 0.021553 2.795178 19.470597 -1.502107 7.614102 0.000000 -0.000001 0.000001 -1.830197 2.219128 -40.001450 2.967155 5.093129 -60.426848 -0.000003 -0.000002 -0.000000 0.445869 5.538171 -52.462632 3.397169 5.313242 -65.165940 0.000001 -0.000002 0.000000 0.016695 5.791559 -61.126956 4.428879 5.676163 -75.909001 -0.000002 -0.000001 0.000001 2.286325 7.106945 -64.497278 4.427531 5.675824 -75.895512 0.000001 -0.000005 -0.000000 -0.000000 0.000002 0.000001 -0.000000 0.000002 0.000001 -0.000000 0.000003 0.000001 -0.000000 0.000000 -0.000000 -0.000000 0.000000 -0.000000 -0.000000 0.000000 -0.000000 -0.000000 -0.000001 0.000001 -20.897135 19.573396 15.018700 -54.028630 48.375303 37.943016 0.000010 110.434870 -0.000010 -42.173823 -8.764108 -54.000377 7.001642 -5.641726 12.057117 17.819644 -18.430810 -19.619525 0.000001 0.000000 0.000001 -0.966789 1.123329 14.455172 1.594507 -3.510107 48.849578 -0.000000 -0.000000 -0.000003 3.182473 -6.937209 53.545654 6.285051 -4.363980 110.480215 -0.000000 -0.000000 -0.000001 -3.447132 -2.797548 58.890171 5.394154 -4.598593 99.114979 -0.000001 -0.000001 -0.000002 -4.083795 -3.535917 66.473846 3.936911 -4.601244 81.093873 -0.000001 0.000003 0.000000 -0.000001 0.000000 -0.000000 -0.000003 -0.000000 0.000002 -0.000001 0.000001 0.000003 -0.000001 0.000000 0.000003 -0.000000 0.000000 0.000003 -0.000001 0.000000 0.000003 0.000000 0.000000 0.000003 -0.000000 0.000002 0.000000 -0.000000 0.000002 0.000000 -0.000000 0.000002 0.000000 -0.000000 0.000002 0.000000 -0.000000 0.000002 0.000000 -0.000000 0.000002 0.000000 -0.000000 0.000002 0.000000 0.000000 0.000000 0.000000 -0.000001 -0.000000 -0.000000 
-1.641906 9.946564 -0.412720 81.936343 -4.262779 -0.709900 -0.000000 -0.000000 -0.000000 -21.415346 32.564798 22.632242 38.370763 -7.106898 -10.510728 -20.112554 8.001067 33.052645 -0.000000 0.000002 -0.000002 -0.000000 -0.000000 0.000001 -45.130215 -36.648422 -51.872620 34.374816 -6.466952 -3.190578 -7.393368 7.401853 13.524605 0.000001 -0.000001 0.000000 -0.000000 -0.000001 -0.000001 6.080866 -1.490765 -0.660352 -4.606536 -5.894160 1.272116 -4.082494 -6.130035 0.451557 -12.213315 0.328280 5.585273 -12.213302 0.328275 5.585273 -0.000001 -0.000001 0.000000 -12.213287 0.328269 5.585280 -12.213261 0.328270 5.585272 0.000000 -0.000001 0.000001 -0.000001 -0.000001 0.000001 -32.568473 -37.551936 27.419718 -76.053733 -13.497800 -39.088210 0.000015 -52.517222 0.000023 -121.936143 11.464616 24.270522 1.110586 -0.497743 2.985804 19.470091 -1.528493 7.589907 0.000004 -0.000001 -0.000003 -1.762156 2.326847 -40.189619 2.977732 5.099089 -60.545857 -0.000002 -0.000001 0.000000 0.496207 5.571989 -52.370021 3.415286 5.321566 -65.361352 -0.000002 -0.000001 0.000000 0.141560 5.863694 -61.179234 4.437369 5.678268 -75.994775 -0.000000 -0.000002 -0.000002 2.393088 7.159506 -64.591835 4.434187 5.677474 -75.962891 -0.000000 -0.000004 0.000004 0.000000 -0.000001 0.000001 0.000000 -0.000001 0.000001 0.000000 -0.000001 0.000001 -0.000003 -0.000005 0.000000 -0.000003 -0.000005 0.000001 -0.000003 -0.000005 0.000000 -0.000003 -0.000006 0.000001 -20.798360 19.587386 14.514997 -53.919183 47.707816 37.774843 0.000041 110.609210 -0.000044 -41.419633 -9.448119 -51.231138 5.523428 -6.465578 13.161710 13.634763 -18.518770 -21.138974 0.000001 -0.000003 0.000001 -0.842819 0.849561 13.750812 1.789645 -3.671196 51.964786 -0.000000 -0.000001 0.000003 2.890268 -6.674253 55.657644 6.272280 -4.368672 110.312555 0.000001 0.000001 -0.000001 -3.555303 -3.020551 60.965797 5.343244 -4.606476 98.480700 -0.000001 0.000001 -0.000001 -4.193086 -3.792820 68.553270 3.811812 -4.579937 79.530586 -0.000001 0.000003 -0.000000 0.000001 -0.000001 -0.000004 0.000001 -0.000002 -0.000002 0.000001 -0.000001 -0.000002 -0.000003 -0.000003 0.000002 -0.000003 -0.000002 0.000001 -0.000003 -0.000003 0.000002 -0.000002 -0.000002 0.000002 -0.000001 -0.000000 -0.000000 -0.000001 -0.000000 -0.000000 -0.000001 -0.000000 -0.000000 -0.000001 -0.000000 -0.000000 -0.000001 -0.000000 -0.000000 -0.000001 -0.000000 -0.000000 -0.000001 -0.000000 -0.000000 -0.000000 0.000000 -0.000000 -0.000000 -0.000000 -0.000000 
-1.634297 10.150223 -0.084961 81.656667 -4.190336 0.043987 -0.000000 0.000000 0.000000 -20.714256 32.745102 22.578546 39.106207 -6.921437 -9.735361 -23.807796 5.805291 33.903601 0.000000 0.000005 0.000001 -0.000001 -0.000001 0.000001 -45.358484 -36.357650 -51.434555 34.979871 -5.197302 -3.864214 -9.202176 7.867675 10.780910 0.000000 0.000002 0.000000 -0.000001 -0.000002 -0.000000 6.299104 -1.623448 -0.838311 -4.640630 -5.817485 1.368113 -4.120952 -6.048997 0.562759 -12.210273 0.327787 5.398405 -12.210273 0.327785 5.398408 -0.000002 -0.000001 0.000001 -12.210240 0.327794 5.398406 -12.210279 0.327766 5.398411 -0.000001 -0.000000 -0.000000 -0.000002 -0.000001 0.000001 -32.243431 -36.968307 26.293783 -74.474723 -13.740678 -36.897184 0.000017 -55.732421 0.000023 -123.989899 8.385976 23.993964 0.786251 -1.105264 3.245975 19.472026 -1.554929 7.560064 0.000001 -0.000000 -0.000003 -1.649349 2.498823 -40.471712 2.977436 5.098931 -60.542524 -0.000002 -0.000001 0.000000 0.564910 5.621764 -52.308229 3.437063 5.331426 -65.595894 0.000002 -0.000000 -0.000001 0.305496 5.957498 -61.241443 4.448999 5.681154 -76.112336 -0.000000 0.000001 0.000001 2.526220 7.225381 -64.760234 4.441047 5.679176 -76.032197 0.000001 -0.000003 0.000002 -0.000001 0.000001 -0.000001 -0.000001 0.000001 -0.000001 -0.000002 0.000001 -0.000001 -0.000001 0.000000 -0.000000 -0.000002 0.000000 -0.000001 -0.000001 0.000000 -0.000000 -0.000002 0.000000 -0.000001 -20.578040 19.621052 13.968033 -53.791670 46.908288 37.593955 0.000050 110.937025 -0.000045 -40.591732 -10.089375 -48.217693 3.965380 -7.299199 14.377519 9.152927 -18.319344 -22.751977 0.000003 0.000002 0.000001 -0.742089 0.637346 13.065355 2.008233 -3.831818 55.304691 0.000001 -0.000000 -0.000002 2.474878 -6.374151 57.964312 6.261140 -4.372787 110.166532 0.000001 0.000000 -0.000000 -3.677302 -3.267915 63.226283 5.288896 -4.614201 97.804402 0.000000 0.000001 -0.000001 -4.301215 -4.088574 70.844621 3.677424 -4.553132 77.842833 0.000001 0.000002 -0.000000 0.000002 0.000003 -0.000001 0.000002 0.000000 0.000001 0.000002 0.000002 0.000002 0.000001 -0.000003 0.000004 0.000002 -0.000003 0.000003 0.000001 -0.000003 0.000004 0.000002 -0.000003 0.000004 -0.000001 0.000002 0.000000 -0.000001 0.000002 0.000000 -0.000001 0.000002 0.000000 -0.000001 0.000002 0.000000 -0.000001 0.000002 0.000000 -0.000001 0.000002 0.000000 -0.000001 0.000002 0.000000 0.000000 -0.000000 -0.000000 -0.000000 0.000000 0.000000 
